<?xml version="1.0" ?><svg id="Layer_1" style="enable-background:new 0 0 512 512;" version="1.0" viewBox="0 0 512 512" xml:space="preserve" xmlns="http://www.w3.org/2000/svg" xmlns:xlink="http://www.w3.org/1999/xlink"><style type="text/css">
	.st0{fill:none;stroke:#000000;stroke-miterlimit:10;}
	.st1{fill:none;stroke:#000000;stroke-linecap:round;stroke-linejoin:round;stroke-miterlimit:10;}
</style><g><g><path d="M446.9,360.5H65.1c-5,0-9.1-4.1-9.1-9.1v-63.6c0-5,4.1-9.1,9.1-9.1h22.7v-45.5H65.1c-5,0-9.1-4.1-9.1-9.1v-63.6    c0-5,4.1-9.1,9.1-9.1h381.8c5,0,9.1,4.1,9.1,9.1v63.6c0,5-4.1,9.1-9.1,9.1h-22.7v45.5h22.7c5,0,9.1,4.1,9.1,9.1v63.6    C456,356.5,451.9,360.5,446.9,360.5z M74.2,342.4h363.6v-45.5h-22.7c-5,0-9.1-4.1-9.1-9.1v-63.6c0-5,4.1-9.1,9.1-9.1h22.7v-45.5    H74.2v45.5h22.7c5,0,9.1,4.1,9.1,9.1v63.6c0,5-4.1,9.1-9.1,9.1H74.2V342.4z"/></g><g><path d="M177.6,312.7c-31.3,0-56.8-25.5-56.8-56.8s25.5-56.8,56.8-56.8s56.8,25.5,56.8,56.8S209,312.7,177.6,312.7z M177.6,217.3    c-21.3,0-38.6,17.3-38.6,38.6s17.3,38.6,38.6,38.6s38.6-17.3,38.6-38.6S198.9,217.3,177.6,217.3z"/></g><g><path d="M351.5,360.5c-5,0-9.1-4.1-9.1-9.1v-95.5c0-5,4.1-9.1,9.1-9.1c5,0,9.1,4.1,9.1,9.1v95.5    C360.5,356.5,356.5,360.5,351.5,360.5z"/></g><g><path d="M351.5,233.2c-5,0-9.1-4.1-9.1-9.1v-63.5c0-5,4.1-9.1,9.1-9.1c5,0,9.1,4.1,9.1,9.1v63.5    C360.5,229.1,356.5,233.2,351.5,233.2z"/></g><g><path d="M322.3,233.2H256c-5,0-9.1-4.1-9.1-9.1s4.1-9.1,9.1-9.1h66.3c5,0,9.1,4.1,9.1,9.1S327.4,233.2,322.3,233.2z"/></g><g><path d="M322.3,265H256c-5,0-9.1-4.1-9.1-9.1c0-5,4.1-9.1,9.1-9.1h66.3c5,0,9.1,4.1,9.1,9.1C331.4,260.9,327.4,265,322.3,265z"/></g><g><path d="M296.6,296.8H256c-5,0-9.1-4.1-9.1-9.1s4.1-9.1,9.1-9.1h40.5c5,0,9.1,4.1,9.1,9.1S301.6,296.8,296.6,296.8z"/></g></g></svg>